<svg width="32" height="32" viewBox="0 0 40 40" fill="none" xmlns="http://www.w3.org/2000/svg">
    <circle cx="20" cy="20" r="20" fill="url(#logo-gradient)"/>
    <path d="M20 8c-2 0-4 2-4 5.5 0 2 .7 3.5 1.4 4.8.7 1.3 1.4 2.7 1.4 4.7h2.4c0-2 .7-3.4 1.4-4.7.7-1.3 1.4-2.8 1.4-4.8 0-3.5-2-5.5-4-5.5z" fill="white"/>
    <path d="M16 23h8v1.5c0 .8-.7 1.5-1.5 1.5h-5c-.8 0-1.5-.7-1.5-1.5V23z" fill="rgba(255,255,255,0.8)"/>
    <circle cx="20" cy="6" r="2" fill="rgba(255,255,255,0.6)"/>
    <path d="M13 14c2-2 4-2 5-1" stroke="rgba(255,255,255,0.4)" stroke-width="1.5" stroke-linecap="round"/>
    <path d="M27 14c-2-2-4-2-5-1" stroke="rgba(255,255,255,0.4)" stroke-width="1.5" stroke-linecap="round"/>
    <defs>
        <linearGradient id="logo-gradient" x1="0" y1="0" x2="40" y2="40">
            <stop offset="0%" stop-color="#4ade80"/>
            <stop offset="100%" stop-color="#22c55e"/>
        </linearGradient>
    </defs>
</svg>
